<?xml version="1.0" encoding="UTF-8"?>
<svg id="Layer_1" data-name="Layer 1" xmlns="http://www.w3.org/2000/svg" viewBox="0 0 534.93 190.18">
  <defs>
    <style>
      .cls-1 {
        stroke-width: .08px;
      }

      .cls-1, .cls-2 {
        fill: #fd5631;
        fill-rule: evenodd;
        stroke: #fd5631;
        stroke-miterlimit: 10;
      }

      .cls-2 {
        stroke-width: .05px;
      }
    </style>
  </defs>
  <path class="cls-1" d="m317.07,54.53c2.67-4.54.44-4.3-1.44-4.3h0c-2.3-2.99-9.71-3.02-10.26-8.17-.27-2.44,3.6-2.51,5.16-2.55,6.88-.18,15.91-1.45,22.6.41,6.48,1.79,7.68,9.74,14.69,9.58,7.11-.12-1.15-5.05-3.21-6.27-17.2-8.87-34.25-16.67-52.77-22.41-26.62-8.04-53.21-10.6-80.87-7.66-19.92,1.89-40.51,6.03-59.61,12.02-33.85,10.63-67.28,23.5-101.79,31.75-4.09.99-23.67,3.39-25.16,5.53h0c6.39,6.43,18.5,8.56,27.13,9.9,7.76,1.21,15.29,1.13,23.17,1.37.3.02,2.82-.05,2.82.57,0,.37-1.12.48-1.29.51-4.96.89-10.66,1.58-15.66,1.75-13.64.54-36.12,4.8-38.81,21.13-1.76,10.35,1.02,21.6,1.03,32.09h0c-.05,9.1-3.29,17.41-9.61,24-1.99-18.89-3.97-30.74-3.99-42.07-.02-12.72,2.3-26.23,11.83-35.67h0C18.15,72.15,2.49,58.16.06,41.85c7.64,7.32,17.99,10.12,28.28,7.62,14.24-3.16,28.29-6.17,42.4-10.11,14.11-3.92,27.91-9.33,41.82-13.95,24.19-8.03,48.48-15.4,73.5-20.38,54.94-10.93,102.71-3.92,152.72,21.15,8.65,4.32,29.38,19.78,35.07,21.71,5.2,1.73,28,2.31,35.1,2.94,21,1.83,42.01,5,62.79,8.93,9.26,1.76,33.32,6.17,40.58,10.71,13.38,8.33,17.79,38.25,21.07,52.48,1.47,6.44,1.65,14.27,1.42,20.86-.04.27.11,2.2-.37,2.2-.58,0-1.02-1.76-1.15-2.17-4.32-12.61-18.79-54.92-29.39-62.53l-10.42-5.72c-53.08-14.9-108.42-18.79-162.96-10.22l-30.66,4.39-16.1,1.48c-38.81,1.27-76.83-2.5-114.56-11.7,49.37,3.8,98.89,2.75,147.87-5.01Z"/>
  <path class="cls-1" d="m485.19,94.37c-47.62-10.96-95.39-18.48-144.07-22.67,44.35-7.32,89.1-4.75,132.31,7.69,5.81,3.18,10.29,8.4,11.76,14.98Z"/>
  <path class="cls-2" d="m170.7,92.47l.03,12.31c-13.46-18.59-34.07-29.16-57.06-28.82,20.67-7.4,43.61-1.05,57.04,16.51Z"/>
  <path class="cls-1" d="m435.36,118.89l-9.23,20.16,11.42,19.32,40.06-.99c-14.61,42.41-72.75,43.92-90.18,2.86l-235.59.15c-5.42,1.1-8.06,9.42-11.7,13.06-23.36,24.56-64.98,16.13-76.97-15.56l37.56,1.17,11.89-19.67-11.56-19.22-38.46-1.37c-.56-1.53,1.4-4.21,2.11-5.47,3.61-6.46,9.34-11.59,15.68-15.23,18.28-10.47,41.99-9.2,57.69,5.6,3.3,3.12,9.11,13.25,13.11,13.89l236.23-.3c7.15-1.16,15.15-31.16,54.9-25.76,1.35.17,2.65.55,3.97.95,11.47,3.72,21.07,10.09,27.72,20.33.68,1.04,3.73,4.77,1.73,5.8l-40.41.25Z"/>
</svg>